<?xml version="1.0" encoding="iso-8859-1"?>
<!-- Generator: Adobe Illustrator 19.0.0, SVG Export Plug-In . SVG Version: 6.00 Build 0)  -->
<svg version="1.1" id="Capa_1" xmlns="http://www.w3.org/2000/svg" xmlns:xlink="http://www.w3.org/1999/xlink" x="0px" y="0px"
	 viewBox="0 0 512 512" style="enable-background:new 0 0 512 512;fill:#ffffff;" xml:space="preserve">
<g>
	<g>
		<path d="M467,59.559H45c-24.813,0-45,20.187-45,45v302.882c0,24.813,20.187,45,45,45h422c24.813,0,45-20.187,45-45V104.559
			C512,79.746,491.813,59.559,467,59.559z M482,407.441c0,8.271-6.729,15-15,15H45c-8.271,0-15-6.729-15-15V104.559
			c0-8.271,6.729-15,15-15h422c8.271,0,15,6.729,15,15V407.441z"/>
	</g>
</g>
<g>
	<g>
		<path d="M126.5,118.134H85.356c-8.284,0-15,6.716-15,15v38.53c0,8.284,6.716,15,15,15s15-6.716,15-15v-23.53H126.5
			c8.284,0,15-6.716,15-15S134.784,118.134,126.5,118.134z"/>
	</g>
</g>
<g>
	<g>
		<path d="M126.5,363.866h-26.144v-23.53c0-8.284-6.716-15-15-15s-15,6.716-15,15v38.53c0,8.284,6.716,15,15,15H126.5
			c8.284,0,15-6.716,15-15S134.784,363.866,126.5,363.866z"/>
	</g>
</g>
<g>
	<g>
		<path d="M426.643,325.336c-8.284,0-15,6.716-15,15v23.53H385.5c-8.284,0-15,6.716-15,15s6.716,15,15,15h41.143
			c8.284,0,15-6.716,15-15v-38.53C441.643,332.052,434.927,325.336,426.643,325.336z"/>
	</g>
</g>
<g>
	<g>
		<path d="M426.643,118.134H385.5c-8.284,0-15,6.716-15,15s6.716,15,15,15h26.144v23.531c0,8.284,6.716,15,15,15s15-6.716,15-15
			v-38.531C441.643,124.849,434.927,118.134,426.643,118.134z"/>
	</g>
</g>
<g>
</g>
<g>
</g>
<g>
</g>
<g>
</g>
<g>
</g>
<g>
</g>
<g>
</g>
<g>
</g>
<g>
</g>
<g>
</g>
<g>
</g>
<g>
</g>
<g>
</g>
<g>
</g>
<g>
</g>
</svg>
